<svg id="visual" viewBox="0 0 540 960" width="540" height="960" xmlns="http://www.w3.org/2000/svg" xmlns:xlink="http://www.w3.org/1999/xlink" version="1.1"><rect x="0" y="0" width="540" height="960" fill="#001220"></rect><defs><linearGradient id="grad1_0" x1="0%" y1="0%" x2="100%" y2="100%"><stop offset="30%" stop-color="#fbae3c" stop-opacity="1"></stop><stop offset="70%" stop-color="#fbae3c" stop-opacity="1"></stop></linearGradient></defs><defs><linearGradient id="grad1_1" x1="0%" y1="0%" x2="100%" y2="100%"><stop offset="30%" stop-color="#fbae3c" stop-opacity="1"></stop><stop offset="70%" stop-color="#f48350" stop-opacity="1"></stop></linearGradient></defs><defs><linearGradient id="grad1_2" x1="0%" y1="0%" x2="100%" y2="100%"><stop offset="30%" stop-color="#d96162" stop-opacity="1"></stop><stop offset="70%" stop-color="#f48350" stop-opacity="1"></stop></linearGradient></defs><defs><linearGradient id="grad1_3" x1="0%" y1="0%" x2="100%" y2="100%"><stop offset="30%" stop-color="#d96162" stop-opacity="1"></stop><stop offset="70%" stop-color="#af4b6d" stop-opacity="1"></stop></linearGradient></defs><defs><linearGradient id="grad1_4" x1="0%" y1="0%" x2="100%" y2="100%"><stop offset="30%" stop-color="#7c3e6b" stop-opacity="1"></stop><stop offset="70%" stop-color="#af4b6d" stop-opacity="1"></stop></linearGradient></defs><defs><linearGradient id="grad1_5" x1="0%" y1="0%" x2="100%" y2="100%"><stop offset="30%" stop-color="#7c3e6b" stop-opacity="1"></stop><stop offset="70%" stop-color="#49335c" stop-opacity="1"></stop></linearGradient></defs><defs><linearGradient id="grad1_6" x1="0%" y1="0%" x2="100%" y2="100%"><stop offset="30%" stop-color="#1d2540" stop-opacity="1"></stop><stop offset="70%" stop-color="#49335c" stop-opacity="1"></stop></linearGradient></defs><defs><linearGradient id="grad1_7" x1="0%" y1="0%" x2="100%" y2="100%"><stop offset="30%" stop-color="#1d2540" stop-opacity="1"></stop><stop offset="70%" stop-color="#001220" stop-opacity="1"></stop></linearGradient></defs><defs><linearGradient id="grad2_0" x1="0%" y1="0%" x2="100%" y2="100%"><stop offset="30%" stop-color="#fbae3c" stop-opacity="1"></stop><stop offset="70%" stop-color="#fbae3c" stop-opacity="1"></stop></linearGradient></defs><defs><linearGradient id="grad2_1" x1="0%" y1="0%" x2="100%" y2="100%"><stop offset="30%" stop-color="#f48350" stop-opacity="1"></stop><stop offset="70%" stop-color="#fbae3c" stop-opacity="1"></stop></linearGradient></defs><defs><linearGradient id="grad2_2" x1="0%" y1="0%" x2="100%" y2="100%"><stop offset="30%" stop-color="#f48350" stop-opacity="1"></stop><stop offset="70%" stop-color="#d96162" stop-opacity="1"></stop></linearGradient></defs><defs><linearGradient id="grad2_3" x1="0%" y1="0%" x2="100%" y2="100%"><stop offset="30%" stop-color="#af4b6d" stop-opacity="1"></stop><stop offset="70%" stop-color="#d96162" stop-opacity="1"></stop></linearGradient></defs><defs><linearGradient id="grad2_4" x1="0%" y1="0%" x2="100%" y2="100%"><stop offset="30%" stop-color="#af4b6d" stop-opacity="1"></stop><stop offset="70%" stop-color="#7c3e6b" stop-opacity="1"></stop></linearGradient></defs><defs><linearGradient id="grad2_5" x1="0%" y1="0%" x2="100%" y2="100%"><stop offset="30%" stop-color="#49335c" stop-opacity="1"></stop><stop offset="70%" stop-color="#7c3e6b" stop-opacity="1"></stop></linearGradient></defs><defs><linearGradient id="grad2_6" x1="0%" y1="0%" x2="100%" y2="100%"><stop offset="30%" stop-color="#49335c" stop-opacity="1"></stop><stop offset="70%" stop-color="#1d2540" stop-opacity="1"></stop></linearGradient></defs><defs><linearGradient id="grad2_7" x1="0%" y1="0%" x2="100%" y2="100%"><stop offset="30%" stop-color="#001220" stop-opacity="1"></stop><stop offset="70%" stop-color="#1d2540" stop-opacity="1"></stop></linearGradient></defs><g transform="translate(540, 0)"><path d="M0 486C-62.4 479.3 -124.8 472.6 -186 449C-247.2 425.4 -307.1 385 -330.2 330.2C-353.3 275.4 -339.6 206.3 -359.4 148.9C-379.2 91.4 -432.6 45.7 -486 0L0 0Z" fill="#0c1c30"></path><path d="M0 425.3C-54.6 419.4 -109.2 413.5 -162.7 392.9C-216.3 372.3 -268.7 336.9 -288.9 288.9C-309.2 241 -297.1 180.5 -314.5 130.3C-331.8 80 -378.5 40 -425.2 0L0 0Z" fill="#312c4f"></path><path d="M0 364.5C-46.8 359.5 -93.6 354.4 -139.5 336.8C-185.4 319.1 -230.3 288.8 -247.7 247.7C-265 206.6 -254.7 154.7 -269.5 111.6C-284.4 68.6 -324.5 34.3 -364.5 0L0 0Z" fill="#623965"></path><path d="M0 303.8C-39 299.6 -78 295.4 -116.2 280.6C-154.5 265.9 -191.9 240.6 -206.4 206.4C-220.8 172.1 -212.2 128.9 -224.6 93C-237 57.1 -270.4 28.6 -303.7 0L0 0Z" fill="#96446e"></path><path d="M0 243C-31.2 239.6 -62.4 236.3 -93 224.5C-123.6 212.7 -153.6 192.5 -165.1 165.1C-176.7 137.7 -169.8 103.1 -179.7 74.4C-189.6 45.7 -216.3 22.9 -243 0L0 0Z" fill="#c55469"></path><path d="M0 182.3C-23.4 179.7 -46.8 177.2 -69.7 168.4C-92.7 159.5 -115.2 144.4 -123.8 123.8C-132.5 103.3 -127.3 77.4 -134.8 55.8C-142.2 34.3 -162.2 17.1 -182.2 0L0 0Z" fill="#e9705a"></path><path d="M0 121.5C-15.6 119.8 -31.2 118.1 -46.5 112.3C-61.8 106.4 -76.8 96.3 -82.6 82.6C-88.3 68.9 -84.9 51.6 -89.8 37.2C-94.8 22.9 -108.2 11.4 -121.5 0L0 0Z" fill="#fa9845"></path><path d="M0 60.8C-7.8 59.9 -15.6 59.1 -23.2 56.1C-30.9 53.2 -38.4 48.1 -41.3 41.3C-44.2 34.4 -42.4 25.8 -44.9 18.6C-47.4 11.4 -54.1 5.7 -60.7 0L0 0Z" fill="#fbae3c"></path></g><g transform="translate(0, 960)"><path d="M0 -486C49.6 -448.7 99.2 -411.3 163.4 -394.5C227.6 -377.6 306.4 -381.3 343.7 -343.7C380.9 -306 376.8 -227.2 393.6 -163C410.4 -98.9 448.2 -49.4 486 0L0 0Z" fill="#0c1c30"></path><path d="M0 -425.2C43.4 -392.6 86.8 -359.9 143 -345.2C199.1 -330.4 268.1 -333.6 300.7 -300.7C333.3 -267.8 329.7 -198.8 344.4 -142.6C359.1 -86.5 392.2 -43.3 425.3 0L0 0Z" fill="#312c4f"></path><path d="M0 -364.5C37.2 -336.5 74.4 -308.5 122.6 -295.9C170.7 -283.2 229.8 -286 257.7 -257.7C285.7 -229.5 282.6 -170.4 295.2 -122.3C307.8 -74.2 336.1 -37.1 364.5 0L0 0Z" fill="#623965"></path><path d="M0 -303.7C31 -280.4 62 -257.1 102.1 -246.6C142.2 -236 191.5 -238.3 214.8 -214.8C238.1 -191.3 235.5 -142 246 -101.9C256.5 -61.8 280.1 -30.9 303.8 0L0 0Z" fill="#96446e"></path><path d="M0 -243C24.8 -224.3 49.6 -205.7 81.7 -197.2C113.8 -188.8 153.2 -190.6 171.8 -171.8C190.5 -153 188.4 -113.6 196.8 -81.5C205.2 -49.4 224.1 -24.7 243 0L0 0Z" fill="#c55469"></path><path d="M0 -182.2C18.6 -168.3 37.2 -154.3 61.3 -147.9C85.3 -141.6 114.9 -143 128.9 -128.9C142.9 -114.8 141.3 -85.2 147.6 -61.1C153.9 -37.1 168.1 -18.5 182.3 0L0 0Z" fill="#e9705a"></path><path d="M0 -121.5C12.4 -112.2 24.8 -102.8 40.9 -98.6C56.9 -94.4 76.6 -95.3 85.9 -85.9C95.2 -76.5 94.2 -56.8 98.4 -40.8C102.6 -24.7 112 -12.4 121.5 0L0 0Z" fill="#fa9845"></path><path d="M0 -60.7C6.2 -56.1 12.4 -51.4 20.4 -49.3C28.4 -47.2 38.3 -47.7 43 -43C47.6 -38.3 47.1 -28.4 49.2 -20.4C51.3 -12.4 56 -6.2 60.8 0L0 0Z" fill="#fbae3c"></path></g></svg>